STARTFONT 2.3
FONT -FontForge-Fontdiner Swanky-Book-R-Normal--12-120-72-72-P-75-ISO10646-1
SIZE 12 72 72  2
FONTBOUNDINGBOX 17 18 -3 -6
COMMENT "Generated by fontforge, http://fontforge.sourceforge.net"
COMMENT "Copyright (c) 2010 by Font Diner, Inc. All rights reserved."
STARTPROPERTIES 40
FOUNDRY "FontForge"
FAMILY_NAME "Fontdiner Swanky"
WEIGHT_NAME "Book"
SLANT "R"
SETWIDTH_NAME "Normal"
ADD_STYLE_NAME ""
PIXEL_SIZE 12
POINT_SIZE 120
RESOLUTION_X 72
RESOLUTION_Y 72
SPACING "P"
AVERAGE_WIDTH 75
CHARSET_REGISTRY "ISO10646"
CHARSET_ENCODING "1"
FONTNAME_REGISTRY ""
CHARSET_COLLECTIONS "ISO10646-1"
BITS_PER_PIXEL 2
FONT_NAME "FontdinerSwanky-Regular"
FACE_NAME "Fontdiner Swanky Regular"
COPYRIGHT "Copyright (c) 2010 by Font Diner, Inc. All rights reserved."
FONT_VERSION "1.001"
FONT_ASCENT 10
FONT_DESCENT 2
UNDERLINE_POSITION -1
UNDERLINE_THICKNESS 1
X_HEIGHT 6
CAP_HEIGHT 7
RAW_ASCENT 799
RAW_DESCENT 200
NORM_SPACE 4
RELATIVE_WEIGHT 40
RELATIVE_SETWIDTH 50
SUPERSCRIPT_X 0
SUPERSCRIPT_Y 5
SUPERSCRIPT_SIZE 7
SUBSCRIPT_X 0
SUBSCRIPT_Y 1
SUBSCRIPT_SIZE 7
AVG_LOWERCASE_WIDTH 75
AVG_UPPERCASE_WIDTH 91
ENDPROPERTIES
CHARS 231
STARTCHAR space
ENCODING 32
SWIDTH 320 0
DWIDTH 4 0
BBX 1 1 0 0
BITMAP
00
ENDCHAR
STARTCHAR exclam
ENCODING 33
SWIDTH 305 0
DWIDTH 4 0
BBX 4 10 0 0
BITMAP
3E
3D
3D
3C
3C
38
34
24
60
B4
ENDCHAR
STARTCHAR quotedbl
ENCODING 34
SWIDTH 369 0
DWIDTH 4 0
BBX 5 4 0 4
BITMAP
BB40
B740
A700
0100
ENDCHAR
STARTCHAR numbersign
ENCODING 35
SWIDTH 702 0
DWIDTH 8 0
BBX 8 8 0 0
BITMAP
0E28
6EB9
BFFE
0D34
5D79
FFFF
1C74
1860
ENDCHAR
STARTCHAR dollar
ENCODING 36
SWIDTH 545 0
DWIDTH 7 0
BBX 7 11 0 -2
BITMAP
0A00
0A00
7FA0
B070
B910
2FE0
46F4
B4B4
9F90
0700
0500
ENDCHAR
STARTCHAR percent
ENCODING 37
SWIDTH 657 0
DWIDTH 8 0
BBX 8 11 0 -1
BITMAP
0010
6838
AA74
AEB0
15D0
02C0
0380
077E
0A77
1D3E
0400
ENDCHAR
STARTCHAR ampersand
ENCODING 38
SWIDTH 668 0
DWIDTH 8 0
BBX 9 10 0 -1
BITMAP
1B8000
38A000
38A000
1E8000
1F4400
3AD900
B4FE00
B9BE80
2FAD00
002000
ENDCHAR
STARTCHAR quotesingle
ENCODING 39
SWIDTH 177 0
DWIDTH 2 0
BBX 2 3 0 5
BITMAP
F0
B0
A0
ENDCHAR
STARTCHAR parenleft
ENCODING 40
SWIDTH 384 0
DWIDTH 5 0
BBX 5 12 0 -2
BITMAP
0240
1D00
2C00
3800
7400
7400
7400
7800
3C00
1D00
0B00
0140
ENDCHAR
STARTCHAR parenright
ENCODING 41
SWIDTH 375 0
DWIDTH 5 0
BBX 4 12 0 -2
BITMAP
50
28
1D
0E
0B
0B
0F
0E
1E
2C
74
40
ENDCHAR
STARTCHAR asterisk
ENCODING 42
SWIDTH 640 0
DWIDTH 8 0
BBX 8 8 0 0
BITMAP
1440
2CB4
0EE0
BFE9
FFEE
0FE0
2DF4
0840
ENDCHAR
STARTCHAR plus
ENCODING 43
SWIDTH 607 0
DWIDTH 7 0
BBX 7 8 0 0
BITMAP
0140
0780
0780
FFFC
AFE8
0740
0740
0240
ENDCHAR
STARTCHAR comma
ENCODING 44
SWIDTH 226 0
DWIDTH 3 0
BBX 3 3 0 -2
BITMAP
64
B8
34
ENDCHAR
STARTCHAR hyphen
ENCODING 45
SWIDTH 549 0
DWIDTH 7 0
BBX 6 3 0 3
BITMAP
1000
7FE0
7AA0
ENDCHAR
STARTCHAR period
ENCODING 46
SWIDTH 226 0
DWIDTH 3 0
BBX 3 2 0 -1
BITMAP
B4
B4
ENDCHAR
STARTCHAR slash
ENCODING 47
SWIDTH 600 0
DWIDTH 7 0
BBX 8 12 0 -1
BITMAP
0014
002D
007C
00F4
02E0
07C0
0B80
1F00
3D00
7800
F000
9000
ENDCHAR
STARTCHAR zero
ENCODING 48
SWIDTH 740 0
DWIDTH 9 0
BBX 9 8 0 0
BITMAP
019000
2FBD00
780F40
B40B80
B40780
B80B40
3D6E00
0BE400
ENDCHAR
STARTCHAR one
ENCODING 49
SWIDTH 503 0
DWIDTH 6 0
BBX 6 10 0 -1
BITMAP
0640
BF40
0B40
0B40
0B40
0B40
0B40
0B40
1F90
5550
ENDCHAR
STARTCHAR two
ENCODING 50
SWIDTH 638 0
DWIDTH 8 0
BBX 8 10 0 -1
BITMAP
4690
7EB8
742D
202D
1078
07E4
2E08
B95C
FFFC
1554
ENDCHAR
STARTCHAR three
ENCODING 51
SWIDTH 620 0
DWIDTH 7 0
BBX 7 10 0 -1
BITMAP
4540
AFF4
7478
503C
06B4
06F8
507C
A07C
AEF4
4540
ENDCHAR
STARTCHAR four
ENCODING 52
SWIDTH 606 0
DWIDTH 7 0
BBX 8 10 -1 -1
BITMAP
0004
0038
00B4
02F4
07B5
1D76
7FFF
0076
0075
02A9
ENDCHAR
STARTCHAR five
ENCODING 53
SWIDTH 610 0
DWIDTH 7 0
BBX 7 10 0 -1
BITMAP
05A8
FFF8
B008
BA44
7AF4
007C
407C
A5B8
AFE0
0140
ENDCHAR
STARTCHAR six
ENCODING 54
SWIDTH 619 0
DWIDTH 7 0
BBX 8 11 0 -1
BITMAP
0004
0114
1FF8
3D68
B954
BEB8
F42D
F01D
B42D
7978
1A90
ENDCHAR
STARTCHAR seven
ENCODING 55
SWIDTH 598 0
DWIDTH 7 0
BBX 8 10 0 -1
BITMAP
A555
BFFE
707C
20B8
00B4
00F0
01E0
02C0
07D0
16A4
ENDCHAR
STARTCHAR eight
ENCODING 56
SWIDTH 642 0
DWIDTH 8 0
BBX 8 10 0 -1
BITMAP
0540
2EB4
783C
782C
3D78
7FF8
B82E
F42E
B83D
2FE4
ENDCHAR
STARTCHAR nine
ENCODING 57
SWIDTH 610 0
DWIDTH 7 0
BBX 8 10 0 -1
BITMAP
0640
7EB4
B438
F02C
F43D
7EFC
1ABC
64B8
3FE0
2540
ENDCHAR
STARTCHAR colon
ENCODING 58
SWIDTH 223 0
DWIDTH 3 0
BBX 3 5 0 -1
BITMAP
B4
B4
00
B4
B4
ENDCHAR
STARTCHAR semicolon
ENCODING 59
SWIDTH 228 0
DWIDTH 3 0
BBX 3 7 0 -3
BITMAP
B4
B4
00
A0
F4
30
40
ENDCHAR
STARTCHAR less
ENCODING 60
SWIDTH 563 0
DWIDTH 7 0
BBX 7 8 0 0
BITMAP
0018
00BC
0BF8
7F80
7D00
0B80
01A0
0018
ENDCHAR
STARTCHAR equal
ENCODING 61
SWIDTH 531 0
DWIDTH 6 0
BBX 7 5 0 1
BITMAP
A550
FFF4
5550
BFF4
ABF4
ENDCHAR
STARTCHAR greater
ENCODING 62
SWIDTH 576 0
DWIDTH 7 0
BBX 7 8 0 0
BITMAP
5000
B900
7F80
07F4
01F4
0780
2D00
6000
ENDCHAR
STARTCHAR question
ENCODING 63
SWIDTH 592 0
DWIDTH 7 0
BBX 7 11 0 -1
BITMAP
6540
A6F0
407C
003C
0078
1FE0
2D00
1800
6400
B800
1000
ENDCHAR
STARTCHAR at
ENCODING 64
SWIDTH 792 0
DWIDTH 10 0
BBX 10 9 0 -1
BITMAP
06FD00
2D5680
B2A8D0
E35CA0
E2ACA0
E75CA0
76ACD0
2E0A40
015000
ENDCHAR
STARTCHAR A
ENCODING 65
SWIDTH 788 0
DWIDTH 9 0
BBX 14 11 -2 -3
BITMAP
01BD0000
001F0000
002F4000
0037C000
00A2D000
00FFF000
0295F400
0B407C00
6A903E40
00007E50
00005000
ENDCHAR
STARTCHAR B
ENCODING 66
SWIDTH 774 0
DWIDTH 9 0
BBX 11 10 -1 -2
BITMAP
7FFA40
0F96E0
0B40B4
0B46F0
0BFF80
0797D0
0781F0
079BE0
1FFA40
540000
ENDCHAR
STARTCHAR C
ENCODING 67
SWIDTH 766 0
DWIDTH 9 0
BBX 9 10 0 -1
BITMAP
005040
0BFD80
3E4780
7C0180
B80040
B80000
B80040
3D0140
1FAB80
01A440
ENDCHAR
STARTCHAR D
ENCODING 68
SWIDTH 833 0
DWIDTH 10 0
BBX 11 9 -1 -1
BITMAP
6FFF80
07D5F4
03D078
03D03C
02D03C
02C078
02C0B4
0BFF90
154000
ENDCHAR
STARTCHAR E
ENCODING 69
SWIDTH 781 0
DWIDTH 9 0
BBX 10 10 -1 -1
BITMAP
0156A0
6FEAB0
07C060
03C520
03D900
03FD10
03C920
03C060
1BEAE0
155540
ENDCHAR
STARTCHAR F
ENCODING 70
SWIDTH 731 0
DWIDTH 9 0
BBX 10 10 -1 -1
BITMAP
005590
6FEAD0
07C090
07C450
07DC10
07FC00
038C00
038400
07C000
1AA400
ENDCHAR
STARTCHAR G
ENCODING 71
SWIDTH 828 0
DWIDTH 10 0
BBX 11 10 0 -1
BITMAP
005080
0BFF80
3E0780
7C0180
B80040
B81FE4
BC03C0
3D07C0
1FAE80
015400
ENDCHAR
STARTCHAR H
ENCODING 72
SWIDTH 797 0
DWIDTH 10 0
BBX 11 10 -1 -1
BITMAP
001554
5557E0
1F82D0
0B42D0
0B42D0
0BFFD0
0B52D0
0B42D0
0B4BE4
6F9000
ENDCHAR
STARTCHAR I
ENCODING 73
SWIDTH 445 0
DWIDTH 5 0
BBX 7 10 -1 -1
BITMAP
5554
1BE4
07C0
07C0
03C0
0380
0380
0380
0380
1BE4
ENDCHAR
STARTCHAR J
ENCODING 74
SWIDTH 718 0
DWIDTH 9 0
BBX 11 11 -1 -2
BITMAP
0005A4
01BF40
000F40
000B40
000780
000780
550780
6E0780
0D0B40
0BAE00
015400
ENDCHAR
STARTCHAR K
ENCODING 75
SWIDTH 934 0
DWIDTH 11 0
BBX 13 10 0 -1
BITMAP
AA900000
1F06F900
1F078000
1F6D0000
0FFC0000
0F1E0000
0E0B8000
0E02D000
6F90F400
0006FE40
ENDCHAR
STARTCHAR L
ENCODING 76
SWIDTH 712 0
DWIDTH 9 0
BBX 10 10 -1 0
BITMAP
555400
1BE000
03C000
03C000
03C000
03C010
03C050
03C090
03D5D0
1AAA90
ENDCHAR
STARTCHAR M
ENCODING 77
SWIDTH 1033 0
DWIDTH 12 0
BBX 14 10 -1 -1
BITMAP
55401A90
0BE02F40
07F07F00
03F8FE00
03BDDE00
036F5E00
034F1E00
03491E00
07907F90
15540000
ENDCHAR
STARTCHAR N
ENCODING 78
SWIDTH 840 0
DWIDTH 10 0
BBX 12 10 -1 -1
BITMAP
5546A9
1BE1B4
03F460
03BD60
032F60
030BE0
0303E0
0741E0
6FF860
000010
ENDCHAR
STARTCHAR O
ENCODING 79
SWIDTH 808 0
DWIDTH 10 0
BBX 10 8 0 0
BITMAP
015000
1FFE00
7D07C0
B803D0
B402D0
B803D0
3D0B80
0BFD00
ENDCHAR
STARTCHAR P
ENCODING 80
SWIDTH 746 0
DWIDTH 9 0
BBX 10 9 -1 -1
BITMAP
6AA500
0BEAD0
0780B0
0796D0
07E900
07C000
07C000
1BE400
155400
ENDCHAR
STARTCHAR Q
ENCODING 81
SWIDTH 789 0
DWIDTH 9 0
BBX 10 12 0 -4
BITMAP
06A400
2F6F00
7C0780
B803C0
B803C0
7C0780
2E6F00
06B800
003C00
003FE0
00B900
014000
ENDCHAR
STARTCHAR R
ENCODING 82
SWIDTH 826 0
DWIDTH 10 0
BBX 14 11 -1 -3
BITMAP
6AA90000
07DAE000
0780B000
03D6D000
03EB4000
03C3C000
03C2E000
1BE4F400
15547F90
0000B900
00014000
ENDCHAR
STARTCHAR S
ENCODING 83
SWIDTH 661 0
DWIDTH 8 0
BBX 8 9 0 -1
BITMAP
1A96
B86D
F405
BF90
1BFD
107E
601E
6EB8
4140
ENDCHAR
STARTCHAR T
ENCODING 84
SWIDTH 754 0
DWIDTH 9 0
BBX 9 9 0 -1
BITMAP
7FFF40
62E240
52D140
42D040
02D000
02D000
02D000
0BF800
055400
ENDCHAR
STARTCHAR U
ENCODING 85
SWIDTH 725 0
DWIDTH 9 0
BBX 10 9 -1 -1
BITMAP
6946E0
0F41C0
0F01C0
0F01C0
0F00C0
0F4180
0B8280
03FE00
005000
ENDCHAR
STARTCHAR V
ENCODING 86
SWIDTH 786 0
DWIDTH 9 0
BBX 11 10 -1 -1
BITMAP
005000
6B82A4
1F40A4
0780C0
03D280
01E300
00F900
00BC00
003400
001000
ENDCHAR
STARTCHAR W
ENCODING 87
SWIDTH 1026 0
DWIDTH 12 0
BBX 14 9 -1 -1
BITMAP
5A901950
1F420290
0B474340
07CBC600
03DFE900
01FDFC00
00F4B800
00B07400
00502000
ENDCHAR
STARTCHAR X
ENCODING 88
SWIDTH 860 0
DWIDTH 10 0
BBX 12 9 -1 -1
BITMAP
005400
1BD2B9
02E2D0
00BE00
007E00
01EF40
0747D0
6F82F4
000655
ENDCHAR
STARTCHAR Y
ENCODING 89
SWIDTH 848 0
DWIDTH 10 0
BBX 12 9 -1 -1
BITMAP
6A9000
1B81F9
02E090
00BA40
003D00
002C00
002D00
002D00
01AA90
ENDCHAR
STARTCHAR Z
ENCODING 90
SWIDTH 685 0
DWIDTH 8 0
BBX 8 8 0 0
BITMAP
0555
BFFF
607D
11F4
07E1
0F82
2F57
6AAA
ENDCHAR
STARTCHAR bracketleft
ENCODING 91
SWIDTH 380 0
DWIDTH 5 0
BBX 5 12 0 -2
BITMAP
7A40
7D00
7800
7800
3800
3800
3800
3800
3800
3800
3D00
1540
ENDCHAR
STARTCHAR backslash
ENCODING 92
SWIDTH 680 0
DWIDTH 8 0
BBX 8 12 0 -1
BITMAP
1000
B800
7C00
2E00
0F40
07C0
02D0
01F0
00B8
003D
001E
0009
ENDCHAR
STARTCHAR bracketright
ENCODING 93
SWIDTH 371 0
DWIDTH 4 0
BBX 4 12 0 -2
BITMAP
AA
1F
0F
0F
0F
0E
0E
0E
0E
0E
2E
55
ENDCHAR
STARTCHAR asciicircum
ENCODING 94
SWIDTH 671 0
DWIDTH 8 0
BBX 8 8 0 3
BITMAP
0100
0280
07D0
0FF0
2E38
7D1C
B806
5400
ENDCHAR
STARTCHAR underscore
ENCODING 95
SWIDTH 840 0
DWIDTH 10 0
BBX 10 3 0 -2
BITMAP
ABFFF0
FFFFF0
055550
ENDCHAR
STARTCHAR grave
ENCODING 96
SWIDTH 707 0
DWIDTH 8 0
BBX 3 3 3 7
BITMAP
64
38
28
ENDCHAR
STARTCHAR a
ENCODING 97
SWIDTH 572 0
DWIDTH 7 0
BBX 7 8 0 -1
BITMAP
0640
79F0
7474
2AB4
B5B4
B5F0
1AF4
0054
ENDCHAR
STARTCHAR b
ENCODING 98
SWIDTH 723 0
DWIDTH 9 0
BBX 10 11 -1 -2
BITMAP
6B4000
1F4000
0B4000
0B4000
0B4000
0BAA00
0B9BD0
0742E0
0702D0
0BAB40
2A9400
ENDCHAR
STARTCHAR c
ENCODING 99
SWIDTH 589 0
DWIDTH 7 0
BBX 7 7 0 -1
BITMAP
0BE0
3D78
7838
B400
7808
3EB4
0690
ENDCHAR
STARTCHAR d
ENCODING 100
SWIDTH 713 0
DWIDTH 9 0
BBX 9 12 0 -2
BITMAP
005500
001F40
000B40
000B40
000F00
069F00
2E6E00
780E00
740E00
380D00
1BFD00
001E40
ENDCHAR
STARTCHAR e
ENCODING 101
SWIDTH 593 0
DWIDTH 7 0
BBX 7 7 0 -1
BITMAP
0540
2EF4
7438
BEBC
7954
3D64
0A90
ENDCHAR
STARTCHAR f
ENCODING 102
SWIDTH 507 0
DWIDTH 6 0
BBX 8 17 -1 -5
BITMAP
0054
02ED
038E
0745
0740
0780
2FFC
03C0
03C0
02C0
02D0
02D0
01D0
11D0
B1D0
76C0
1A00
ENDCHAR
STARTCHAR g
ENCODING 103
SWIDTH 606 0
DWIDTH 7 0
BBX 8 14 0 -6
BITMAP
0014
007E
1FE9
7878
B03C
B03C
7874
2F90
7E50
3EB8
B01E
F01E
B42D
1BE4
ENDCHAR
STARTCHAR h
ENCODING 104
SWIDTH 678 0
DWIDTH 8 0
BBX 10 11 -1 -1
BITMAP
7F4000
0B4000
0B4000
0B4000
0B4000
0BA900
0B4B80
0B0380
0B0380
1F8380
000A90
ENDCHAR
STARTCHAR i
ENCODING 105
SWIDTH 393 0
DWIDTH 5 0
BBX 5 10 0 0
BITMAP
0500
1F00
1E00
5500
6F00
0E00
0E00
0E00
0E00
7F80
ENDCHAR
STARTCHAR j
ENCODING 106
SWIDTH 385 0
DWIDTH 5 0
BBX 5 13 -1 -4
BITMAP
0A00
1F40
0A00
1A40
0B80
0380
03C0
03C0
02C0
02C0
A2C0
B2C0
7F40
ENDCHAR
STARTCHAR k
ENCODING 107
SWIDTH 749 0
DWIDTH 9 0
BBX 11 11 -1 -1
BITMAP
5A4000
1F4000
0B5AA4
0B4780
0B5D00
0BF800
07AD00
074F00
074740
1FE2D4
000694
ENDCHAR
STARTCHAR l
ENCODING 108
SWIDTH 369 0
DWIDTH 4 0
BBX 6 12 -1 -1
BITMAP
5500
1F40
0B40
0B40
0B40
0B40
0740
0740
0740
0740
0740
1E90
ENDCHAR
STARTCHAR m
ENCODING 109
SWIDTH 990 0
DWIDTH 12 0
BBX 14 7 -1 0
BITMAP
05540400
6FFFFE00
0B478B40
07474740
07474740
1A9B5A90
00154000
ENDCHAR
STARTCHAR n
ENCODING 110
SWIDTH 643 0
DWIDTH 8 0
BBX 9 7 -1 0
BITMAP
055400
6FFF00
0B4740
074740
070740
1A9B40
001540
ENDCHAR
STARTCHAR o
ENCODING 111
SWIDTH 705 0
DWIDTH 8 0
BBX 9 6 0 0
BITMAP
06A400
7D6E00
B40B40
B00B40
781F00
1BF800
ENDCHAR
STARTCHAR p
ENCODING 112
SWIDTH 723 0
DWIDTH 9 0
BBX 10 10 -1 -3
BITMAP
564000
1FAA00
0B97C0
0B41D0
0741D0
0797C0
07AA00
074000
078000
2EA000
ENDCHAR
STARTCHAR q
ENCODING 113
SWIDTH 682 0
DWIDTH 8 0
BBX 9 10 0 -3
BITMAP
002A80
1FFD00
B42D00
F02D00
B42C00
3EBC00
056C00
002C00
007D00
016A40
ENDCHAR
STARTCHAR r
ENCODING 114
SWIDTH 595 0
DWIDTH 7 0
BBX 8 7 0 0
BITMAP
6F6D
6FBD
0F04
0E00
0E00
0F40
7E90
ENDCHAR
STARTCHAR s
ENCODING 115
SWIDTH 533 0
DWIDTH 6 0
BBX 7 7 0 0
BITMAP
2FA0
B0B0
B920
2FD0
46F4
B4B4
ABD0
ENDCHAR
STARTCHAR t
ENCODING 116
SWIDTH 422 0
DWIDTH 5 0
BBX 6 12 0 -1
BITMAP
0500
0D00
1D00
FE90
7D40
3C00
3800
3800
7840
3880
2F80
0500
ENDCHAR
STARTCHAR u
ENCODING 117
SWIDTH 614 0
DWIDTH 7 0
BBX 9 7 -1 -1
BITMAP
7E2A00
1E0B00
1D0B00
1D0A00
0E1E00
07FE40
000500
ENDCHAR
STARTCHAR v
ENCODING 118
SWIDTH 639 0
DWIDTH 8 0
BBX 10 8 -1 -1
BITMAP
054000
7E1950
0F0B40
074D00
03D800
01F400
00A000
005000
ENDCHAR
STARTCHAR w
ENCODING 119
SWIDTH 805 0
DWIDTH 10 0
BBX 12 7 -1 0
BITMAP
5A4055
2E0874
0F6D60
07BED0
03EB80
01C740
008200
ENDCHAR
STARTCHAR x
ENCODING 120
SWIDTH 717 0
DWIDTH 9 0
BBX 10 8 -1 -1
BITMAP
059000
5F9A90
03DA00
01F800
01FC00
079E00
169B90
001500
ENDCHAR
STARTCHAR y
ENCODING 121
SWIDTH 655 0
DWIDTH 8 0
BBX 9 13 -1 -6
BITMAP
400000
296A40
0F0B40
1E0B40
2E0B40
1F5B40
06AB40
000B40
000B40
1D0F00
1C1E00
0BB800
015000
ENDCHAR
STARTCHAR z
ENCODING 122
SWIDTH 549 0
DWIDTH 7 0
BBX 7 7 0 0
BITMAP
0154
BFF8
91E0
57C0
0F54
2E24
7FF4
ENDCHAR
STARTCHAR braceleft
ENCODING 123
SWIDTH 708 0
DWIDTH 9 0
BBX 6 12 1 -2
BITMAP
0EA0
0F40
0F00
0F00
0F00
6F00
1E00
0E00
0A00
0A00
0B40
0550
ENDCHAR
STARTCHAR bar
ENCODING 124
SWIDTH 304 0
DWIDTH 4 0
BBX 2 11 1 -1
BITMAP
E0
E0
E0
E0
E0
E0
E0
E0
E0
E0
E0
ENDCHAR
STARTCHAR braceright
ENCODING 125
SWIDTH 517 0
DWIDTH 6 0
BBX 6 12 0 -2
BITMAP
6B40
0B80
0780
0740
0740
07D0
0790
0740
0740
0740
1B40
1500
ENDCHAR
STARTCHAR asciitilde
ENCODING 126
SWIDTH 466 0
DWIDTH 6 0
BBX 6 3 0 2
BITMAP
A960
EFE0
4140
ENDCHAR
STARTCHAR uni00A0
ENCODING 160
SWIDTH 320 0
DWIDTH 4 0
BBX 1 1 0 0
BITMAP
00
ENDCHAR
STARTCHAR exclamdown
ENCODING 161
SWIDTH 305 0
DWIDTH 4 0
BBX 4 11 0 -4
BITMAP
08
2E
04
2C
2C
3C
38
78
B8
B8
64
ENDCHAR
STARTCHAR cent
ENCODING 162
SWIDTH 417 0
DWIDTH 5 0
BBX 5 11 0 -2
BITMAP
0900
0D00
1E40
B2C0
D040
D000
E040
7F40
0D00
0E00
0400
ENDCHAR
STARTCHAR sterling
ENCODING 163
SWIDTH 658 0
DWIDTH 8 0
BBX 8 9 0 -1
BITMAP
06E6
1E6E
2D09
FFE5
5E51
FFE2
1D53
2FFF
1555
ENDCHAR
STARTCHAR currency
ENCODING 164
SWIDTH 358 0
DWIDTH 4 0
BBX 4 5 0 2
BITMAP
01
BF
66
7E
96
ENDCHAR
STARTCHAR yen
ENCODING 165
SWIDTH 796 0
DWIDTH 10 0
BBX 10 8 -1 0
BITMAP
6A4500
1B02D0
03C600
00F800
02BA00
02BA00
017900
01AA40
ENDCHAR
STARTCHAR brokenbar
ENCODING 166
SWIDTH 304 0
DWIDTH 4 0
BBX 2 11 1 -1
BITMAP
E0
E0
E0
E0
40
00
90
E0
E0
E0
E0
ENDCHAR
STARTCHAR section
ENCODING 167
SWIDTH 646 0
DWIDTH 8 0
BBX 8 14 0 -3
BITMAP
0540
2AE8
7028
7804
3F90
2FF8
74BD
782D
3FB8
1FF4
01BC
602D
7D7C
4690
ENDCHAR
STARTCHAR dieresis
ENCODING 168
SWIDTH 708 0
DWIDTH 9 0
BBX 4 2 2 10
BITMAP
11
67
ENDCHAR
STARTCHAR copyright
ENCODING 169
SWIDTH 700 0
DWIDTH 8 0
BBX 9 8 0 0
BITMAP
1BF400
755A00
966340
D90340
DA1340
729A00
2EA800
015000
ENDCHAR
STARTCHAR ordfeminine
ENCODING 170
SWIDTH 399 0
DWIDTH 5 0
BBX 5 6 0 4
BITMAP
1400
AB00
6700
EB00
BF40
0540
ENDCHAR
STARTCHAR guillemotleft
ENCODING 171
SWIDTH 424 0
DWIDTH 5 0
BBX 5 6 0 0
BITMAP
0480
2680
B740
B700
3680
1880
ENDCHAR
STARTCHAR logicalnot
ENCODING 172
SWIDTH 541 0
DWIDTH 7 0
BBX 7 7 0 0
BITMAP
4000
8014
BFF4
AAB0
4030
0074
0004
ENDCHAR
STARTCHAR sfthyphen
ENCODING 173
SWIDTH 530 0
DWIDTH 6 0
BBX 7 3 0 3
BITMAP
4000
FFF4
FAA4
ENDCHAR
STARTCHAR registered
ENCODING 174
SWIDTH 700 0
DWIDTH 8 0
BBX 9 8 0 0
BITMAP
1BF400
781E00
A7B740
D25340
D24340
A29700
296D00
055000
ENDCHAR
STARTCHAR macron
ENCODING 175
SWIDTH 705 0
DWIDTH 8 0
BBX 4 3 3 8
BITMAP
54
FD
54
ENDCHAR
STARTCHAR degree
ENCODING 176
SWIDTH 364 0
DWIDTH 4 0
BBX 4 4 0 5
BITMAP
14
7A
7A
18
ENDCHAR
STARTCHAR plusminus
ENCODING 177
SWIDTH 607 0
DWIDTH 7 0
BBX 7 8 0 0
BITMAP
0640
0780
BFE8
BFE8
0740
0240
BFF8
BFA8
ENDCHAR
STARTCHAR twosuperior
ENCODING 178
SWIDTH 440 0
DWIDTH 5 0
BBX 5 7 0 4
BITMAP
4500
7B80
61C0
4780
2980
BAC0
5680
ENDCHAR
STARTCHAR threesuperior
ENCODING 179
SWIDTH 442 0
DWIDTH 5 0
BBX 5 7 0 4
BITMAP
4000
AF40
62C0
0B80
47C0
66C0
AE40
ENDCHAR
STARTCHAR acute
ENCODING 180
SWIDTH 694 0
DWIDTH 8 0
BBX 3 3 3 9
BITMAP
10
38
70
ENDCHAR
STARTCHAR mu
ENCODING 181
SWIDTH 1000 0
DWIDTH 12 0
BBX 9 9 0 -3
BITMAP
6E2A40
0E0B00
0E0B00
0E0A00
0E0E00
0FFF40
0E0500
0D0000
0D0000
ENDCHAR
STARTCHAR paragraph
ENCODING 182
SWIDTH 782 0
DWIDTH 9 0
BBX 10 9 0 -1
BITMAP
1AAF90
BADD00
E1CD00
7AEC00
06EC00
01DC00
01DC00
06FF40
155400
ENDCHAR
STARTCHAR periodcentered
ENCODING 183
SWIDTH 226 0
DWIDTH 3 0
BBX 3 3 0 3
BITMAP
60
B8
50
ENDCHAR
STARTCHAR cedilla
ENCODING 184
SWIDTH 780 0
DWIDTH 9 0
BBX 3 5 3 -3
BITMAP
10
74
1C
7C
10
ENDCHAR
STARTCHAR onesuperior
ENCODING 185
SWIDTH 390 0
DWIDTH 5 0
BBX 4 7 0 4
BITMAP
01
6E
0E
0D
0D
0D
2A
ENDCHAR
STARTCHAR ordmasculine
ENCODING 186
SWIDTH 449 0
DWIDTH 5 0
BBX 7 4 -1 5
BITMAP
2EE0
7434
3474
1B90
ENDCHAR
STARTCHAR guillemotright
ENCODING 187
SWIDTH 415 0
DWIDTH 5 0
BBX 5 6 0 0
BITMAP
8500
A700
7780
3AC0
7740
9500
ENDCHAR
STARTCHAR onequarter
ENCODING 188
SWIDTH 918 0
DWIDTH 11 0
BBX 11 13 0 -2
BITMAP
010040
6E00E0
0E02D0
0D0380
0D0B00
0D1D10
2A78A0
0071E0
00D7E4
02DFF8
0745E4
0A06F4
040000
ENDCHAR
STARTCHAR onehalf
ENCODING 189
SWIDTH 1007 0
DWIDTH 12 0
BBX 12 13 0 -2
BITMAP
010040
6E00E0
0E02D0
0D0380
0D0B00
0D1D00
2A7914
0072EE
00D14B
02C11E
0741E6
0A03EA
0402A9
ENDCHAR
STARTCHAR threequarters
ENCODING 190
SWIDTH 936 0
DWIDTH 11 0
BBX 11 13 0 -2
BITMAP
400010
AF40B0
62C1D0
0B8380
47CB40
66DE10
AE6C70
0075E0
00E3E4
01DFF8
0345A8
0A02F4
050000
ENDCHAR
STARTCHAR questiondown
ENCODING 191
SWIDTH 568 0
DWIDTH 7 0
BBX 7 11 0 -4
BITMAP
00B4
00B8
0050
01E0
1BD0
B950
F000
F004
B818
1BF4
0014
ENDCHAR
STARTCHAR Agrave
ENCODING 192
SWIDTH 788 0
DWIDTH 9 0
BBX 14 15 -2 -3
BITMAP
00180000
002C0000
000D0000
00000000
01BD0000
001F0000
002F4000
0037C000
00A2D000
00FFF000
0295F400
0B407C00
6A903E40
00007E50
00005000
ENDCHAR
STARTCHAR Aacute
ENCODING 193
SWIDTH 788 0
DWIDTH 9 0
BBX 14 15 -2 -3
BITMAP
00050000
000B0000
000D0000
00000000
01BD0000
001F0000
002F4000
0037C000
00A2D000
00FFF000
0295F400
0B407C00
6A903E40
00007E50
00005000
ENDCHAR
STARTCHAR Acircumflex
ENCODING 194
SWIDTH 788 0
DWIDTH 9 0
BBX 14 14 -2 -3
BITMAP
00090000
002F4000
00214000
01BD0000
001F0000
002F4000
0037C000
00A2D000
00FFF000
0295F400
0B407C00
6A903E40
00007E50
00005000
ENDCHAR
STARTCHAR Atilde
ENCODING 195
SWIDTH 788 0
DWIDTH 9 0
BBX 14 14 -2 -3
BITMAP
00144000
003F8000
00110000
01BD0000
001F0000
002F4000
0037C000
00A2D000
00FFF000
0295F400
0B407C00
6A903E40
00007E50
00005000
ENDCHAR
STARTCHAR Adieresis
ENCODING 196
SWIDTH 788 0
DWIDTH 9 0
BBX 14 14 -2 -3
BITMAP
00110000
00364000
00000000
01BD0000
001F0000
002F4000
0037C000
00A2D000
00FFF000
0295F400
0B407C00
6A903E40
00007E50
00005000
ENDCHAR
STARTCHAR Aring
ENCODING 197
SWIDTH 788 0
DWIDTH 9 0
BBX 14 13 -2 -3
BITMAP
001A0000
001A0000
01BE0000
001F0000
002F4000
0037C000
00A2D000
00FFF000
0295F400
0B407C00
6A903E40
00007E50
00005000
ENDCHAR
STARTCHAR AE
ENCODING 198
SWIDTH 1019 0
DWIDTH 12 0
BBX 15 10 -3 -1
BITMAP
005556A4
007FFAA8
000AF418
001DF544
0024F640
0070FF44
00FFF244
0280F054
1B46FAB4
5A955550
ENDCHAR
STARTCHAR Ccedilla
ENCODING 199
SWIDTH 766 0
DWIDTH 9 0
BBX 9 13 0 -4
BITMAP
005040
0BFD80
3E4780
7C0180
B80040
B80000
B80040
3D0140
1FAB80
01E440
02D000
007000
02E000
ENDCHAR
STARTCHAR Egrave
ENCODING 200
SWIDTH 781 0
DWIDTH 9 0
BBX 10 13 -1 -1
BITMAP
006000
007400
002400
0156A0
6FEAB0
07C060
03C520
03D900
03FD10
03C920
03C060
1BEAE0
155540
ENDCHAR
STARTCHAR Eacute
ENCODING 201
SWIDTH 781 0
DWIDTH 9 0
BBX 10 13 -1 -1
BITMAP
000400
002C00
002800
0156A0
6FEAB0
07C060
03C520
03D900
03FD10
03C920
03C060
1BEAE0
155540
ENDCHAR
STARTCHAR Ecircumflex
ENCODING 202
SWIDTH 781 0
DWIDTH 9 0
BBX 10 13 -1 -1
BITMAP
003400
00BC00
014500
0156A0
6FEAB0
07C060
03C520
03D900
03FD10
03C920
03C060
1BEAE0
155540
ENDCHAR
STARTCHAR Edieresis
ENCODING 203
SWIDTH 781 0
DWIDTH 9 0
BBX 10 12 -1 -1
BITMAP
004400
00D900
0156A0
6FEAB0
07C060
03C520
03D900
03FD10
03C920
03C060
1BEAE0
155540
ENDCHAR
STARTCHAR Igrave
ENCODING 204
SWIDTH 445 0
DWIDTH 5 0
BBX 7 13 -1 -1
BITMAP
0600
0740
0240
5554
1BE4
07C0
07C0
03C0
0380
0380
0380
0380
1BE4
ENDCHAR
STARTCHAR Iacute
ENCODING 205
SWIDTH 445 0
DWIDTH 5 0
BBX 7 13 -1 -1
BITMAP
0040
01D0
0280
5554
1BE4
07C0
07C0
03C0
0380
0380
0380
0380
1BE4
ENDCHAR
STARTCHAR Icircumflex
ENCODING 206
SWIDTH 445 0
DWIDTH 5 0
BBX 7 13 -1 -1
BITMAP
0240
0BD0
0860
5554
1BE4
07C0
07C0
03C0
0380
0380
0380
0380
1BE4
ENDCHAR
STARTCHAR Idieresis
ENCODING 207
SWIDTH 445 0
DWIDTH 5 0
BBX 7 12 -1 -1
BITMAP
0440
0DA0
5554
1BE4
07C0
07C0
03C0
0380
0380
0380
0380
1BE4
ENDCHAR
STARTCHAR Eth
ENCODING 208
SWIDTH 1000 0
DWIDTH 12 0
BBX 11 9 1 -1
BITMAP
BFFE40
0B86E0
0B80F4
6B94B4
BFF4B4
0780B4
0741E0
1FFF80
550000
ENDCHAR
STARTCHAR Ntilde
ENCODING 209
SWIDTH 840 0
DWIDTH 10 0
BBX 12 13 -1 -1
BITMAP
005100
00BF00
004500
5546A9
1BE1B4
03F460
03BD60
032F60
030BE0
0303E0
0741E0
6FF860
000010
ENDCHAR
STARTCHAR Ograve
ENCODING 210
SWIDTH 808 0
DWIDTH 10 0
BBX 10 11 0 0
BITMAP
009000
00E000
006000
015000
1FFE00
7D07C0
B803D0
B402D0
B803D0
3D0B80
0BFD00
ENDCHAR
STARTCHAR Oacute
ENCODING 211
SWIDTH 808 0
DWIDTH 10 0
BBX 10 11 0 0
BITMAP
001000
007400
00A000
015000
1FFE00
7D07C0
B803D0
B402D0
B803D0
3D0B80
0BFD00
ENDCHAR
STARTCHAR Ocircumflex
ENCODING 212
SWIDTH 808 0
DWIDTH 10 0
BBX 10 11 0 0
BITMAP
00A000
02F400
021800
015000
1FFE00
7D07C0
B803D0
B402D0
B803D0
3D0B80
0BFD00
ENDCHAR
STARTCHAR Otilde
ENCODING 213
SWIDTH 808 0
DWIDTH 10 0
BBX 10 11 0 0
BITMAP
014400
02FC00
011400
015000
1FFE00
7D07C0
B803D0
B402D0
B803D0
3D0B80
0BFD00
ENDCHAR
STARTCHAR Odieresis
ENCODING 214
SWIDTH 808 0
DWIDTH 10 0
BBX 10 10 0 0
BITMAP
010000
036800
015400
1FFE00
7D07C0
B803D0
B402D0
B803D0
3D0B80
0BFD00
ENDCHAR
STARTCHAR multiply
ENCODING 215
SWIDTH 556 0
DWIDTH 7 0
BBX 7 6 0 1
BITMAP
74A0
7EF4
1FD0
1FD0
7DF0
6060
ENDCHAR
STARTCHAR Oslash
ENCODING 216
SWIDTH 808 0
DWIDTH 10 0
BBX 10 11 0 -2
BITMAP
000500
015F40
1FFF00
7D3FC0
B877D0
B4E2D0
BAC3D0
3F8B80
0FFD00
1D0000
040000
ENDCHAR
STARTCHAR Ugrave
ENCODING 217
SWIDTH 725 0
DWIDTH 9 0
BBX 10 13 -1 -1
BITMAP
006000
007400
002400
000000
6946E0
0F41C0
0F01C0
0F01C0
0F00C0
0F4180
0B8280
03FE00
005000
ENDCHAR
STARTCHAR Uacute
ENCODING 218
SWIDTH 725 0
DWIDTH 9 0
BBX 10 13 -1 -1
BITMAP
001400
003800
007000
000000
6946E0
0F41C0
0F01C0
0F01C0
0F00C0
0F4180
0B8280
03FE00
005000
ENDCHAR
STARTCHAR Ucircumflex
ENCODING 219
SWIDTH 725 0
DWIDTH 9 0
BBX 10 12 -1 -1
BITMAP
003400
00BC00
014500
6946E0
0F41C0
0F01C0
0F01C0
0F00C0
0F4180
0B8280
03FE00
005000
ENDCHAR
STARTCHAR Udieresis
ENCODING 220
SWIDTH 725 0
DWIDTH 9 0
BBX 10 12 -1 -1
BITMAP
004400
00D900
000000
6946E0
0F41C0
0F01C0
0F01C0
0F00C0
0F4180
0B8280
03FE00
005000
ENDCHAR
STARTCHAR Yacute
ENCODING 221
SWIDTH 848 0
DWIDTH 10 0
BBX 12 13 -1 -1
BITMAP
000500
000B00
000A00
000000
6A9000
1B81F9
02E090
00BA40
003D00
002C00
002D00
002D00
01AA90
ENDCHAR
STARTCHAR Thorn
ENCODING 222
SWIDTH 745 0
DWIDTH 9 0
BBX 10 9 -1 -1
BITMAP
6AA400
0B9000
07FE80
0781F0
0780B0
07EF80
07D000
1BE400
155400
ENDCHAR
STARTCHAR germandbls
ENCODING 223
SWIDTH 986 0
DWIDTH 12 0
BBX 13 16 -1 -5
BITMAP
00BF4000
01D1C000
0380E000
0380A000
0780D000
2F82C000
03878000
03C78000
02C3E400
02D1FE40
01D21BC0
01D79780
11D6AA00
B5D00000
76C00000
1A000000
ENDCHAR
STARTCHAR agrave
ENCODING 224
SWIDTH 572 0
DWIDTH 7 0
BBX 7 11 0 -1
BITMAP
0180
01D0
0090
0640
79F0
7474
2AB4
B5B4
B5F0
1AF4
0054
ENDCHAR
STARTCHAR aacute
ENCODING 225
SWIDTH 572 0
DWIDTH 7 0
BBX 7 12 0 -1
BITMAP
0080
01D0
0280
0000
0640
79F0
7474
2AB4
B5B4
B5F0
1AF4
0054
ENDCHAR
STARTCHAR acircumflex
ENCODING 226
SWIDTH 572 0
DWIDTH 7 0
BBX 7 11 0 -1
BITMAP
0280
07D0
0860
0640
79F0
7474
2AB4
B5B4
B5F0
1AF4
0054
ENDCHAR
STARTCHAR atilde
ENCODING 227
SWIDTH 572 0
DWIDTH 7 0
BBX 7 11 0 -1
BITMAP
0510
0BF0
0450
0640
79F0
7474
2AB4
B5B4
B5F0
1AF4
0054
ENDCHAR
STARTCHAR adieresis
ENCODING 228
SWIDTH 572 0
DWIDTH 7 0
BBX 7 11 0 -1
BITMAP
0440
0DD0
0000
0640
79F0
7474
2AB4
B5B4
B5F0
1AF4
0054
ENDCHAR
STARTCHAR aring
ENCODING 229
SWIDTH 572 0
DWIDTH 7 0
BBX 7 10 0 -1
BITMAP
0280
0680
0B80
39F0
7474
2AB4
B5B4
B5F0
1AF4
0054
ENDCHAR
STARTCHAR ae
ENCODING 230
SWIDTH 1022 0
DWIDTH 12 0
BBX 12 8 0 -1
BITMAP
1A4040
75E7F8
B0BE0E
2ABFAF
B5FE55
F5EBA9
2AF550
005000
ENDCHAR
STARTCHAR ccedilla
ENCODING 231
SWIDTH 589 0
DWIDTH 7 0
BBX 7 10 0 -4
BITMAP
0BE0
3D78
7838
B400
7808
3EB4
0790
0740
01C0
0780
ENDCHAR
STARTCHAR egrave
ENCODING 232
SWIDTH 593 0
DWIDTH 7 0
BBX 7 10 0 -1
BITMAP
0180
02C0
00D0
0540
2EF4
7438
BEBC
7954
3D64
0A90
ENDCHAR
STARTCHAR eacute
ENCODING 233
SWIDTH 593 0
DWIDTH 7 0
BBX 7 11 0 -1
BITMAP
0040
01C0
0280
0000
0540
2EF4
7438
BEBC
7954
3D64
0A90
ENDCHAR
STARTCHAR ecircumflex
ENCODING 234
SWIDTH 593 0
DWIDTH 7 0
BBX 7 10 0 -1
BITMAP
0280
07D0
0860
0540
2EF4
7438
BEBC
7954
3D64
0A90
ENDCHAR
STARTCHAR edieresis
ENCODING 235
SWIDTH 593 0
DWIDTH 7 0
BBX 7 9 0 -1
BITMAP
0AA0
0000
0540
2EF4
7438
BEBC
7954
3D64
0A90
ENDCHAR
STARTCHAR igrave
ENCODING 236
SWIDTH 393 0
DWIDTH 5 0
BBX 5 10 0 0
BITMAP
1800
1D00
0900
5500
6F00
0E00
0E00
0E00
0E00
7F80
ENDCHAR
STARTCHAR iacute
ENCODING 237
SWIDTH 393 0
DWIDTH 5 0
BBX 5 11 0 0
BITMAP
0500
0B00
0A00
0000
5500
6F00
0E00
0E00
0E00
0E00
7F80
ENDCHAR
STARTCHAR icircumflex
ENCODING 238
SWIDTH 393 0
DWIDTH 5 0
BBX 5 10 0 0
BITMAP
0D00
2F40
2140
5500
6F00
0E00
0E00
0E00
0E00
7F80
ENDCHAR
STARTCHAR idieresis
ENCODING 239
SWIDTH 393 0
DWIDTH 5 0
BBX 5 10 0 0
BITMAP
1000
2680
0000
5500
6F00
0E00
0E00
0E00
0E00
7F80
ENDCHAR
STARTCHAR eth
ENCODING 240
SWIDTH 672 0
DWIDTH 8 0
BBX 8 11 0 -1
BITMAP
0404
066D
02F0
0BB4
052C
06AE
796F
F00F
F00F
B41E
2FF4
ENDCHAR
STARTCHAR ntilde
ENCODING 241
SWIDTH 643 0
DWIDTH 8 0
BBX 9 10 -1 0
BITMAP
005400
01FD00
001400
055400
6FFF00
0B4740
074740
070740
1A9B40
001540
ENDCHAR
STARTCHAR ograve
ENCODING 242
SWIDTH 705 0
DWIDTH 8 0
BBX 9 10 0 0
BITMAP
018000
01D000
009000
000000
06A400
7D6E00
B40B40
B00B40
781F00
1BF800
ENDCHAR
STARTCHAR oacute
ENCODING 243
SWIDTH 705 0
DWIDTH 8 0
BBX 9 10 0 0
BITMAP
004000
00E000
01C000
000000
06A400
7D6E00
B40B40
B00B40
781F00
1BF800
ENDCHAR
STARTCHAR ocircumflex
ENCODING 244
SWIDTH 705 0
DWIDTH 8 0
BBX 9 9 0 0
BITMAP
01C000
03E000
051400
06A400
7D6E00
B40B40
B00B40
781F00
1BF800
ENDCHAR
STARTCHAR otilde
ENCODING 245
SWIDTH 705 0
DWIDTH 8 0
BBX 9 9 0 0
BITMAP
014000
07F400
005000
06A400
7D6E00
B40B40
B00B40
781F00
1BF800
ENDCHAR
STARTCHAR odieresis
ENCODING 246
SWIDTH 705 0
DWIDTH 8 0
BBX 9 9 0 0
BITMAP
011000
073400
000000
06A400
7D6E00
B40B40
B00B40
781F00
1BF800
ENDCHAR
STARTCHAR divide
ENCODING 247
SWIDTH 504 0
DWIDTH 6 0
BBX 6 7 0 0
BITMAP
0A00
0F40
5500
FFF0
5550
0A00
0F40
ENDCHAR
STARTCHAR oslash
ENCODING 248
SWIDTH 705 0
DWIDTH 8 0
BBX 9 9 0 -2
BITMAP
001D00
06BC00
7DBE00
B4EB40
B2CB40
7B5F00
1FF800
1D0000
040000
ENDCHAR
STARTCHAR ugrave
ENCODING 249
SWIDTH 614 0
DWIDTH 7 0
BBX 9 11 -1 -1
BITMAP
018000
01D000
009000
000000
7E2A00
1E0B00
1D0B00
1D0A00
0E1E00
07FE40
000500
ENDCHAR
STARTCHAR uacute
ENCODING 250
SWIDTH 614 0
DWIDTH 7 0
BBX 9 11 -1 -1
BITMAP
005000
00B000
009000
000000
7E2A00
1E0B00
1D0B00
1D0A00
0E1E00
07FE40
000500
ENDCHAR
STARTCHAR ucircumflex
ENCODING 251
SWIDTH 614 0
DWIDTH 7 0
BBX 9 11 -1 -1
BITMAP
009000
02F400
021800
000000
7E2A00
1E0B00
1D0B00
1D0A00
0E1E00
07FE40
000500
ENDCHAR
STARTCHAR udieresis
ENCODING 252
SWIDTH 614 0
DWIDTH 7 0
BBX 9 10 -1 -1
BITMAP
011000
037400
000000
7E2A00
1E0B00
1D0B00
1D0A00
0E1E00
07FE40
000500
ENDCHAR
STARTCHAR yacute
ENCODING 253
SWIDTH 655 0
DWIDTH 8 0
BBX 9 16 -1 -6
BITMAP
005000
00B000
009000
400000
296A40
0F0B40
1E0B40
2E0B40
1F5B40
06AB40
000B40
000B40
1D0F00
1C1E00
0BB800
015000
ENDCHAR
STARTCHAR thorn
ENCODING 254
SWIDTH 734 0
DWIDTH 9 0
BBX 10 14 -1 -5
BITMAP
554000
1F8000
078000
078000
078000
07EE40
0782D0
0380F0
0380E0
03E7D0
039900
038000
038000
1FE400
ENDCHAR
STARTCHAR ydieresis
ENCODING 255
SWIDTH 655 0
DWIDTH 8 0
BBX 9 15 -1 -6
BITMAP
011000
037400
400000
296A40
0F0B40
1E0B40
2E0B40
1F5B40
06AB40
000B40
000B40
1D0F00
1C1E00
0BB800
015000
ENDCHAR
STARTCHAR dotlessi
ENCODING 305
SWIDTH 393 0
DWIDTH 5 0
BBX 5 7 0 0
BITMAP
5500
6F00
0E00
0E00
0E00
0E00
7F80
ENDCHAR
STARTCHAR Lslash
ENCODING 321
SWIDTH 713 0
DWIDTH 9 0
BBX 10 10 -1 0
BITMAP
555400
1BE000
03C000
03E400
03F800
2FD010
1BC050
03C090
03D5D0
1AAA90
ENDCHAR
STARTCHAR lslash
ENCODING 322
SWIDTH 365 0
DWIDTH 4 0
BBX 6 12 -1 -1
BITMAP
5500
1F40
0B40
0B40
0BA0
1FD0
7F40
1B40
0700
0700
0740
2E90
ENDCHAR
STARTCHAR OE
ENCODING 338
SWIDTH 1195 0
DWIDTH 14 0
BBX 14 10 0 -1
BITMAP
000155A0
006FEAA0
0AA3D020
7D7FD110
B01FD900
F00FFD10
B41FD920
2EBAD160
055BEAE0
00155540
ENDCHAR
STARTCHAR oe
ENCODING 339
SWIDTH 1087 0
DWIDTH 13 0
BBX 13 7 0 -1
BITMAP
05501000
3EBAFE00
B01F4780
F01FABC0
B42F5540
2EEB9600
0001A800
ENDCHAR
STARTCHAR Scaron
ENCODING 352
SWIDTH 661 0
DWIDTH 8 0
BBX 8 13 0 -1
BITMAP
0960
03D0
0140
0000
1A96
B86D
F405
BF90
1BFD
107E
601E
6EB8
4140
ENDCHAR
STARTCHAR scaron
ENCODING 353
SWIDTH 533 0
DWIDTH 6 0
BBX 7 11 0 0
BITMAP
1990
0B80
0200
0000
2FA0
B0B0
B920
2FD0
46F4
B4B4
ABD0
ENDCHAR
STARTCHAR Ydieresis
ENCODING 376
SWIDTH 848 0
DWIDTH 10 0
BBX 12 12 -1 -1
BITMAP
001100
007300
000000
6A9000
1B81F9
02E090
00BA40
003D00
002C00
002D00
002D00
01AA90
ENDCHAR
STARTCHAR Zcaron
ENCODING 381
SWIDTH 685 0
DWIDTH 8 0
BBX 8 11 0 0
BITMAP
0664
02E0
0080
0555
BFFF
607D
11F4
07E1
0F82
2F57
6AAA
ENDCHAR
STARTCHAR zcaron
ENCODING 382
SWIDTH 549 0
DWIDTH 7 0
BBX 7 10 0 0
BITMAP
1990
0B80
0200
0154
BFF8
91E0
57C0
0F54
2E24
7FF4
ENDCHAR
STARTCHAR circumflex
ENCODING 710
SWIDTH 714 0
DWIDTH 9 0
BBX 4 3 3 8
BITMAP
24
BD
85
ENDCHAR
STARTCHAR caron
ENCODING 711
SWIDTH 714 0
DWIDTH 9 0
BBX 4 3 3 8
BITMAP
DA
7C
24
ENDCHAR
STARTCHAR breve
ENCODING 728
SWIDTH 715 0
DWIDTH 9 0
BBX 4 2 3 9
BITMAP
DA
78
ENDCHAR
STARTCHAR dotaccent
ENCODING 729
SWIDTH 708 0
DWIDTH 9 0
BBX 2 2 3 10
BITMAP
10
70
ENDCHAR
STARTCHAR ring
ENCODING 730
SWIDTH 704 0
DWIDTH 8 0
BBX 3 3 3 8
BITMAP
68
68
10
ENDCHAR
STARTCHAR ogonek
ENCODING 731
SWIDTH 988 0
DWIDTH 12 0
BBX 4 4 4 -2
BITMAP
40
C0
FA
54
ENDCHAR
STARTCHAR tilde
ENCODING 732
SWIDTH 707 0
DWIDTH 8 0
BBX 4 3 3 8
BITMAP
51
FE
04
ENDCHAR
STARTCHAR hungarumlaut
ENCODING 733
SWIDTH 671 0
DWIDTH 8 0
BBX 5 3 2 9
BITMAP
2200
7B40
6A00
ENDCHAR
STARTCHAR endash
ENCODING 8211
SWIDTH 576 0
DWIDTH 7 0
BBX 6 3 0 3
BITMAP
1550
7FF0
1550
ENDCHAR
STARTCHAR emdash
ENCODING 8212
SWIDTH 993 0
DWIDTH 12 0
BBX 11 3 0 3
BITMAP
015554
7FFFFC
1556A8
ENDCHAR
STARTCHAR quoteleft
ENCODING 8216
SWIDTH 261 0
DWIDTH 3 0
BBX 3 4 0 5
BITMAP
14
3C
B4
60
ENDCHAR
STARTCHAR quoteright
ENCODING 8217
SWIDTH 301 0
DWIDTH 4 0
BBX 3 4 0 5
BITMAP
14
3C
78
60
ENDCHAR
STARTCHAR quotesinglbase
ENCODING 8218
SWIDTH 332 0
DWIDTH 4 0
BBX 3 4 0 -1
BITMAP
14
3C
78
60
ENDCHAR
STARTCHAR quotedblleft
ENCODING 8220
SWIDTH 477 0
DWIDTH 6 0
BBX 6 4 0 5
BITMAP
1480
3DD0
BBC0
6580
ENDCHAR
STARTCHAR quotedblright
ENCODING 8221
SWIDTH 477 0
DWIDTH 6 0
BBX 6 4 0 5
BITMAP
2140
7AD0
B7C0
6240
ENDCHAR
STARTCHAR quotedblbase
ENCODING 8222
SWIDTH 477 0
DWIDTH 6 0
BBX 6 4 0 -1
BITMAP
2140
7AD0
B7C0
6240
ENDCHAR
STARTCHAR dagger
ENCODING 8224
SWIDTH 487 0
DWIDTH 6 0
BBX 6 14 0 -4
BITMAP
0F00
0F00
0F00
BFE0
AF90
0F00
0B00
0B00
0B00
0A00
0A00
0A00
0A00
0500
ENDCHAR
STARTCHAR daggerdbl
ENCODING 8225
SWIDTH 497 0
DWIDTH 6 0
BBX 6 14 0 -4
BITMAP
0F00
0F00
0F00
BFE0
AF90
0F40
BFE0
6F90
0B00
0A00
0A00
0A00
0A00
0500
ENDCHAR
STARTCHAR bullet
ENCODING 8226
SWIDTH 275 0
DWIDTH 3 0
BBX 4 3 0 3
BITMAP
BC
FD
B8
ENDCHAR
STARTCHAR ellipsis
ENCODING 8230
SWIDTH 787 0
DWIDTH 9 0
BBX 9 2 0 -1
BITMAP
B5E2C0
B5E3C0
ENDCHAR
STARTCHAR perthousand
ENCODING 8240
SWIDTH 888 0
DWIDTH 11 0
BBX 11 11 0 -1
BITMAP
001000
683800
DAB400
ADE000
15D000
02C000
034000
0B7EF8
0EA7DC
1C7EF8
040000
ENDCHAR
STARTCHAR guilsinglleft
ENCODING 8249
SWIDTH 234 0
DWIDTH 3 0
BBX 3 6 0 0
BITMAP
04
24
B0
B0
34
18
ENDCHAR
STARTCHAR guilsinglright
ENCODING 8250
SWIDTH 223 0
DWIDTH 3 0
BBX 3 6 0 0
BITMAP
80
A0
74
38
70
90
ENDCHAR
STARTCHAR fraction
ENCODING 8260
SWIDTH 600 0
DWIDTH 7 0
BBX 8 11 0 -1
BITMAP
0028
003D
00B8
01F0
02D0
07C0
0F40
2E00
7C00
B400
E000
ENDCHAR
STARTCHAR Euro
ENCODING 8364
SWIDTH 590 0
DWIDTH 7 0
BBX 8 8 -1 0
BITMAP
01A8
075A
1F0B
7FA0
6FA0
1B92
07FD
0050
ENDCHAR
STARTCHAR trademark
ENCODING 8482
SWIDTH 624 0
DWIDTH 7 0
BBX 8 6 0 3
BITMAP
1000
A400
5654
9268
6669
1000
ENDCHAR
STARTCHAR minus
ENCODING 8722
SWIDTH 549 0
DWIDTH 7 0
BBX 7 3 0 3
BITMAP
4000
FFF4
BAA4
ENDCHAR
STARTCHAR fi
ENCODING 64257
SWIDTH 757 0
DWIDTH 9 0
BBX 10 17 -1 -5
BITMAP
005400
01EB40
0383C0
0743D0
074280
078000
2FFFD0
03C2C0
03C2C0
02C2C0
02D2C0
02DBE0
01D000
11D000
B1D000
76C000
1A0000
ENDCHAR
STARTCHAR fl
ENCODING 64258
SWIDTH 776 0
DWIDTH 9 0
BBX 11 17 -1 -5
BITMAP
006900
01EB40
0383C0
0742D0
0742D0
0782D0
2FFAD0
03C2D0
03C1D0
02C1D0
02D1C0
02D1D0
01D7A4
11D000
B1D000
76C000
1A0000
ENDCHAR
STARTCHAR .notdef
ENCODING -1
SWIDTH 320 0
DWIDTH 4 0
BBX 1 1 0 0
BITMAP
00
ENDCHAR
ENDFONT
